<?xml version="1.0" encoding="utf-8"?>
<!-- Generator: Adobe Illustrator 27.1.1, SVG Export Plug-In . SVG Version: 6.00 Build 0)  -->
<svg version="1.1" id="Layer_1" xmlns="http://www.w3.org/2000/svg" xmlns:xlink="http://www.w3.org/1999/xlink" x="0px" y="0px"
	 viewBox="0 0 1008.65 298.33" style="enable-background:new 0 0 1008.65 298.33;" xml:space="preserve">
<style type="text/css">
	.st0{fill:#595959;}
	.st1{fill:#005F4A;}
	.st2{fill:#37BF38;}
	.st3{fill:#EE6354;}
	.st4{fill:#FFFFFF;}
	.st5{fill:#CCCCCC;}
</style>
<g>
	<g>
		<path class="st4" d="M303.98,203.08h17.07c4.33,0,8.55,0.86,12.65,2.59c4.11,1.73,7.52,4.51,10.25,8.35
			c2.72,3.84,4.08,8.7,4.08,14.59c0,5.89-1.36,10.75-4.08,14.59c-2.72,3.84-6.14,6.63-10.25,8.35c-4.11,1.73-8.33,2.59-12.65,2.59
			h-17.07V203.08z M320.24,248.44c3.45,0,6.73-0.67,9.85-2.01c3.11-1.34,5.66-3.49,7.66-6.45c1.99-2.97,2.99-6.76,2.99-11.38
			c0-4.62-1-8.41-2.99-11.38c-1.99-2.97-4.55-5.12-7.66-6.45c-3.11-1.34-6.39-2.01-9.85-2.01h-9.26v39.68H320.24z"/>
		<path class="st4" d="M368.33,203.08h31.51v5.62h-24.51v16.85h22.61v5.54h-22.61v17.36h25.97v5.69h-32.97V203.08z"/>
		<path class="st4" d="M417.06,203.08h7.73l15.83,42.82l15.83-42.82h7.73l-19.77,51.06h-7.66L417.06,203.08z"/>
		<path class="st4" d="M481.74,203.08h31.51v5.62h-24.51v16.85h22.61v5.54h-22.61v17.36h25.97v5.69h-32.97V203.08z"/>
		<path class="st4" d="M534.07,203.08h7v45.22h20.71v5.83h-27.72V203.08z"/>
		<path class="st4" d="M587.78,251.69c-3.96-2.36-7.07-5.58-9.34-9.67c-2.26-4.08-3.39-8.56-3.39-13.42c0-4.86,1.13-9.34,3.39-13.42
			c2.26-4.08,5.37-7.32,9.34-9.7c3.96-2.38,8.38-3.58,13.24-3.58c4.86,0,9.27,1.19,13.24,3.58c3.96,2.38,7.08,5.62,9.34,9.7
			c2.26,4.08,3.39,8.56,3.39,13.42c0,4.86-1.13,9.34-3.39,13.42c-2.26,4.08-5.37,7.31-9.34,9.67c-3.96,2.36-8.38,3.54-13.24,3.54
			C596.15,255.23,591.74,254.05,587.78,251.69z M584.79,238.85c1.53,3.09,3.71,5.53,6.53,7.33c2.82,1.8,6.05,2.7,9.7,2.7
			c3.65,0,6.88-0.9,9.7-2.7c2.82-1.8,5-4.24,6.53-7.33c1.53-3.09,2.3-6.5,2.3-10.25c0-3.74-0.77-7.17-2.3-10.28
			c-1.53-3.11-3.71-5.58-6.53-7.4c-2.82-1.82-6.05-2.73-9.7-2.73c-3.65,0-6.88,0.91-9.7,2.73c-2.82,1.82-5,4.29-6.53,7.4
			c-1.53,3.11-2.3,6.54-2.3,10.28C582.49,232.35,583.26,235.76,584.79,238.85z"/>
		<path class="st4" d="M647.32,203.08h17.07c3.89,0,7.24,0.71,10.07,2.11c2.82,1.41,4.98,3.35,6.49,5.83
			c1.51,2.48,2.26,5.28,2.26,8.39c0,3.11-0.75,5.91-2.26,8.39c-1.51,2.48-3.67,4.43-6.49,5.83c-2.82,1.41-6.18,2.11-10.07,2.11
			h-10.07v18.38h-7V203.08z M664.17,230.06c3.35,0,6.15-0.94,8.39-2.81c2.24-1.87,3.36-4.49,3.36-7.84s-1.12-5.97-3.36-7.84
			c-2.24-1.87-5.03-2.81-8.39-2.81h-9.85v21.3H664.17z"/>
		<path class="st4" d="M701.67,203.08h10.14l15.39,42.89l15.39-42.89h10.14v51.06h-6.86l0.44-42.67l-15.39,41.5h-7.44l-15.39-41.5
			l0.44,42.67h-6.86V203.08z"/>
		<path class="st4" d="M775.98,203.08h31.51v5.62h-24.51v16.85h22.61v5.54h-22.61v17.36h25.97v5.69h-32.97V203.08z"/>
		<path class="st4" d="M828.31,203.08h7.66l27.79,41.14v-41.14h6.86v51.06h-7.66l-27.79-41.14v41.14h-6.86V203.08z"/>
		<path class="st4" d="M903.83,208.91h-15.32v-5.83h37.64v5.83h-15.32v45.22h-7V208.91z"/>
		<path class="st4" d="M947.11,251.58c-3.02-2.43-5.01-5.81-5.98-10.14l6.56-1.82c1.75,6.86,5.64,10.28,11.67,10.28
			c3.11,0,5.63-0.74,7.55-2.23c1.92-1.48,2.88-3.49,2.88-6.02c0-1.9-0.51-3.48-1.53-4.74c-1.02-1.26-2.3-2.27-3.83-3.03
			c-1.53-0.75-3.61-1.62-6.24-2.59c-3.16-1.12-5.74-2.21-7.73-3.28c-1.99-1.07-3.68-2.59-5.07-4.56c-1.39-1.97-2.08-4.51-2.08-7.62
			c0-2.97,0.77-5.49,2.3-7.59c1.53-2.09,3.58-3.66,6.16-4.7c2.58-1.05,5.42-1.57,8.53-1.57c4.67,0,8.52,1.23,11.56,3.68
			c3.04,2.46,5.04,5.82,6.02,10.1l-6.56,1.82c-0.73-2.97-2.03-5.42-3.9-7.37c-1.87-1.95-4.34-2.92-7.4-2.92
			c-2.87,0-5.18,0.74-6.93,2.23c-1.75,1.48-2.63,3.49-2.63,6.02c0,1.9,0.5,3.45,1.5,4.67c1,1.22,2.25,2.19,3.76,2.92
			c1.51,0.73,3.58,1.53,6.2,2.41c3.31,1.17,5.96,2.27,7.95,3.32c1.99,1.05,3.69,2.58,5.1,4.59c1.41,2.02,2.12,4.66,2.12,7.91
			c0,2.97-0.81,5.5-2.44,7.59c-1.63,2.09-3.8,3.66-6.53,4.7c-2.72,1.05-5.74,1.57-9.04,1.57
			C954.11,255.23,950.12,254.01,947.11,251.58z"/>
	</g>
	<path class="st4" d="M303.98,56.2h19.86l55.61,83.89l-0.16-83.89h18.43v111.22h-19.86L322.25,84l0.16,83.42h-18.43V56.2z"/>
	<path class="st4" d="M412.17,56.2h71.02v15.25h-52.27v32.1h48.3v14.94h-48.3v33.52h54.98v15.41h-73.72V56.2z"/>
	<path class="st4" d="M533.52,111.81L492.21,56.2h23.04l29.39,40.68l29.4-40.68h23.04l-41.15,55.61l41.15,55.61h-23.04l-29.4-40.68
		l-29.39,40.68h-23.04L533.52,111.81z"/>
	<path class="st4" d="M633.5,71.77h-32.26V56.2h83.1v15.57h-32.1v95.65H633.5V71.77z"/>
	<path class="st4" d="M707.13,160.04c-8.17-4.92-14.51-11.59-19.02-20.01c-4.52-8.42-6.77-17.8-6.77-28.15
		c0-10.24,2.38-19.63,7.15-28.15c4.77-8.52,11.31-15.24,19.63-20.16c8.32-4.92,17.6-7.38,27.84-7.38c12.37,0,23.05,3.2,32.03,9.59
		c8.98,6.39,15.14,14.76,18.49,25.11l-17.5,4.87c-2.84-7-7.08-12.63-12.71-16.89c-5.63-4.26-12.4-6.39-20.31-6.39
		c-7.1,0-13.37,1.75-18.79,5.25c-5.43,3.5-9.64,8.24-12.63,14.23c-2.99,5.99-4.49,12.63-4.49,19.93c0,7.51,1.45,14.25,4.34,20.24
		c2.89,5.99,7.02,10.7,12.4,14.15c5.37,3.45,11.77,5.17,19.17,5.17c9.23,0,16.81-2.18,22.75-6.54c5.93-4.36,9.25-10.29,9.97-17.8
		h-32.1v-14.76h50.67c0.51,11.06-1.29,20.75-5.4,29.06c-4.11,8.32-10.17,14.73-18.18,19.25c-8.01,4.51-17.5,6.77-28.45,6.77
		C724.65,167.42,715.3,164.96,707.13,160.04z"/>
	<path class="st4" d="M799.69,56.2h71.02v15.25h-52.27v32.1h48.3v14.94h-48.3v33.52h54.97v15.41h-73.72V56.2z"/>
	<path class="st4" d="M884.14,56.2H904l55.61,83.89l-0.16-83.89h18.43v111.22h-19.86L902.42,84l0.16,83.42h-18.43V56.2z"/>
	<g>
		<g>
			<g>
				<polygon class="st1" points="144.58,24 64.89,133.53 64.89,286.33 144.56,176.73 				"/>
			</g>
		</g>
		<polygon class="st2" points="229.01,178.84 144.56,131.49 144.58,24 229.01,24 		"/>
		<polygon class="st2" points="173.51,253.09 89.05,253.09 89.05,100.27 173.51,147.54 		"/>
		<circle class="st3" cx="89.05" cy="42.47" r="18.47"/>
	</g>
</g>
</svg>
