<?xml version="1.0" encoding="utf-8"?>
<!-- Generator: Adobe Illustrator 27.1.1, SVG Export Plug-In . SVG Version: 6.00 Build 0)  -->
<svg version="1.1" id="Layer_1" xmlns="http://www.w3.org/2000/svg" xmlns:xlink="http://www.w3.org/1999/xlink" x="0px" y="0px"
	 viewBox="0 0 961.73 292.44" style="enable-background:new 0 0 961.73 292.44;" xml:space="preserve">
<style type="text/css">
	.st0{fill:#595959;}
	.st1{fill:#005F4A;}
	.st2{fill:#37BF38;}
	.st3{fill:#EE6354;}
	.st4{fill:#FFFFFF;}
	.st5{fill:#CCCCCC;}
</style>
<g>
	<g>
		<path class="st0" d="M257.15,209.19h17.07c4.33,0,8.55,0.86,12.65,2.59c4.11,1.73,7.52,4.51,10.25,8.35
			c2.72,3.84,4.08,8.7,4.08,14.59c0,5.89-1.36,10.75-4.08,14.59c-2.72,3.84-6.14,6.63-10.25,8.35c-4.11,1.73-8.33,2.59-12.65,2.59
			h-17.07V209.19z M273.42,254.55c3.45,0,6.73-0.67,9.85-2.01c3.11-1.34,5.66-3.49,7.66-6.45c1.99-2.97,2.99-6.76,2.99-11.38
			c0-4.62-1-8.41-2.99-11.38c-1.99-2.97-4.55-5.12-7.66-6.45c-3.11-1.34-6.39-2.01-9.85-2.01h-9.26v39.68H273.42z"/>
		<path class="st0" d="M321.51,209.19h31.51v5.62h-24.51v16.85h22.61v5.54h-22.61v17.36h25.97v5.69h-32.97V209.19z"/>
		<path class="st0" d="M370.24,209.19h7.73L393.8,252l15.83-42.82h7.73l-19.77,51.06h-7.66L370.24,209.19z"/>
		<path class="st0" d="M434.92,209.19h31.51v5.62h-24.51v16.85h22.61v5.54h-22.61v17.36h25.97v5.69h-32.97V209.19z"/>
		<path class="st0" d="M487.25,209.19h7v45.22h20.71v5.83h-27.72V209.19z"/>
		<path class="st0" d="M540.95,257.8c-3.96-2.36-7.07-5.58-9.34-9.67c-2.26-4.08-3.39-8.56-3.39-13.42c0-4.86,1.13-9.34,3.39-13.42
			c2.26-4.08,5.37-7.32,9.34-9.7c3.96-2.38,8.38-3.58,13.24-3.58c4.86,0,9.27,1.19,13.24,3.58c3.96,2.38,7.08,5.62,9.34,9.7
			c2.26,4.08,3.39,8.56,3.39,13.42c0,4.86-1.13,9.34-3.39,13.42c-2.26,4.08-5.37,7.31-9.34,9.67c-3.96,2.36-8.38,3.54-13.24,3.54
			C549.33,261.34,544.92,260.16,540.95,257.8z M537.96,244.96c1.53,3.09,3.71,5.53,6.53,7.33c2.82,1.8,6.05,2.7,9.7,2.7
			c3.65,0,6.88-0.9,9.7-2.7c2.82-1.8,5-4.24,6.53-7.33c1.53-3.09,2.3-6.5,2.3-10.25c0-3.74-0.77-7.17-2.3-10.28
			c-1.53-3.11-3.71-5.58-6.53-7.4c-2.82-1.82-6.05-2.73-9.7-2.73c-3.65,0-6.88,0.91-9.7,2.73c-2.82,1.82-5,4.29-6.53,7.4
			c-1.53,3.11-2.3,6.54-2.3,10.28C535.67,238.46,536.43,241.88,537.96,244.96z"/>
		<path class="st0" d="M600.49,209.19h17.07c3.89,0,7.24,0.71,10.07,2.11c2.82,1.41,4.98,3.35,6.49,5.83
			c1.51,2.48,2.26,5.28,2.26,8.39c0,3.11-0.75,5.91-2.26,8.39c-1.51,2.48-3.67,4.43-6.49,5.83c-2.82,1.41-6.18,2.11-10.07,2.11
			H607.5v18.38h-7V209.19z M617.34,236.17c3.35,0,6.15-0.94,8.39-2.81c2.24-1.87,3.36-4.49,3.36-7.84c0-3.35-1.12-5.97-3.36-7.84
			c-2.24-1.87-5.03-2.81-8.39-2.81h-9.85v21.3H617.34z"/>
		<path class="st0" d="M654.84,209.19h10.14l15.39,42.89l15.39-42.89h10.14v51.06h-6.86l0.44-42.67l-15.39,41.5h-7.44l-15.39-41.5
			l0.44,42.67h-6.86V209.19z"/>
		<path class="st0" d="M729.16,209.19h31.51v5.62h-24.51v16.85h22.61v5.54h-22.61v17.36h25.97v5.69h-32.97V209.19z"/>
		<path class="st0" d="M781.49,209.19h7.66l27.79,41.14v-41.14h6.86v51.06h-7.66l-27.79-41.14v41.14h-6.86V209.19z"/>
		<path class="st0" d="M857.01,215.02h-15.32v-5.83h37.64v5.83h-15.32v45.22h-7V215.02z"/>
		<path class="st0" d="M900.28,257.69c-3.02-2.43-5.01-5.81-5.98-10.14l6.56-1.82c1.75,6.86,5.64,10.28,11.67,10.28
			c3.11,0,5.63-0.74,7.55-2.23c1.92-1.48,2.88-3.49,2.88-6.02c0-1.9-0.51-3.48-1.53-4.74s-2.3-2.27-3.83-3.03
			c-1.53-0.75-3.61-1.62-6.24-2.59c-3.16-1.12-5.74-2.21-7.73-3.28c-1.99-1.07-3.68-2.59-5.07-4.56c-1.39-1.97-2.08-4.51-2.08-7.62
			c0-2.97,0.77-5.49,2.3-7.59c1.53-2.09,3.58-3.66,6.16-4.7c2.58-1.05,5.42-1.57,8.53-1.57c4.67,0,8.52,1.23,11.56,3.68
			c3.04,2.46,5.04,5.82,6.02,10.1l-6.56,1.82c-0.73-2.97-2.03-5.42-3.9-7.37c-1.87-1.95-4.34-2.92-7.4-2.92
			c-2.87,0-5.18,0.74-6.93,2.23c-1.75,1.48-2.63,3.49-2.63,6.02c0,1.9,0.5,3.45,1.5,4.67c1,1.22,2.25,2.19,3.76,2.92
			c1.51,0.73,3.58,1.53,6.2,2.41c3.31,1.17,5.96,2.27,7.95,3.32c1.99,1.05,3.69,2.58,5.1,4.59c1.41,2.02,2.12,4.66,2.12,7.91
			c0,2.97-0.81,5.5-2.44,7.59c-1.63,2.09-3.8,3.66-6.53,4.7c-2.72,1.05-5.74,1.57-9.04,1.57
			C907.29,261.34,903.3,260.12,900.28,257.69z"/>
	</g>
	<path d="M257.15,62.31h19.86l55.61,83.89l-0.16-83.89h18.43v111.22h-19.86l-55.61-83.42l0.16,83.42h-18.43V62.31z"/>
	<path d="M365.35,62.31h71.02v15.25H384.1v32.1h48.3v14.94h-48.3v33.52h54.98v15.41h-73.72V62.31z"/>
	<path d="M486.7,117.92l-41.31-55.61h23.04l29.39,40.68l29.4-40.68h23.04l-41.15,55.61l41.15,55.61h-23.04l-29.4-40.68l-29.39,40.68
		h-23.04L486.7,117.92z"/>
	<path d="M586.68,77.88h-32.26V62.31h83.1v15.57h-32.1v95.65h-18.75V77.88z"/>
	<path d="M660.31,166.15c-8.17-4.92-14.51-11.59-19.02-20.01c-4.52-8.42-6.77-17.8-6.77-28.15c0-10.24,2.38-19.63,7.15-28.15
		c4.77-8.52,11.31-15.24,19.63-20.16c8.32-4.92,17.6-7.38,27.84-7.38c12.37,0,23.05,3.2,32.03,9.59
		c8.98,6.39,15.14,14.76,18.49,25.11l-17.5,4.87c-2.84-7-7.08-12.63-12.71-16.89c-5.63-4.26-12.4-6.39-20.31-6.39
		c-7.1,0-13.37,1.75-18.79,5.25c-5.43,3.5-9.64,8.24-12.63,14.23c-2.99,5.99-4.49,12.63-4.49,19.93c0,7.51,1.45,14.25,4.34,20.24
		c2.89,5.99,7.02,10.7,12.4,14.15c5.37,3.45,11.77,5.17,19.17,5.17c9.23,0,16.81-2.18,22.75-6.54c5.93-4.36,9.25-10.29,9.97-17.8
		h-32.1v-14.76h50.67c0.51,11.06-1.29,20.75-5.4,29.06c-4.11,8.32-10.17,14.73-18.18,19.25c-8.01,4.51-17.5,6.77-28.45,6.77
		C677.83,173.53,668.47,171.07,660.31,166.15z"/>
	<path d="M752.87,62.31h71.02v15.25h-52.27v32.1h48.3v14.94h-48.3v33.52h54.97v15.41h-73.72V62.31z"/>
	<path d="M837.32,62.31h19.86l55.61,83.89l-0.16-83.89h18.43v111.22H911.2l-55.61-83.42l0.16,83.42h-18.43V62.31z"/>
	<g>
		<g>
			<g>
				<polygon class="st1" points="97.75,30.11 18.06,139.64 18.06,292.44 97.73,182.84 				"/>
			</g>
		</g>
		<polygon class="st2" points="182.19,184.95 97.73,137.61 97.75,30.11 182.19,30.11 		"/>
		<polygon class="st2" points="126.68,259.2 42.23,259.2 42.23,106.38 126.68,153.66 		"/>
		<circle class="st3" cx="42.23" cy="48.58" r="18.47"/>
	</g>
</g>
</svg>
